<?xml version="1.0" standalone="no"?><!DOCTYPE svg PUBLIC "-//W3C//DTD SVG 1.1//EN"
        "http://www.w3.org/Graphics/SVG/1.1/DTD/svg11.dtd">
<svg t="1690014240099" class="icon" viewBox="0 0 1024 1024" version="1.1" xmlns="http://www.w3.org/2000/svg" p-id="2918"
     fill="#fca464"
     width="200" height="200">
    <path d="M713.383 592.449a170.713 170.713 0 1 0 170.713 170.713 170.713 170.713 0 0 0-170.713-170.713z m3.84 191.198a58.47 58.47 0 0 0-31.581 8.963 58.47 58.47 0 0 0-26.887 50.787 21.766 21.766 0 0 1-21.34 21.34 21.34 21.34 0 0 1-21.339-21.34 102.001 102.001 0 0 1 42.679-85.357 73.833 73.833 0 1 1 60.176 23.9s-0.854 1.707-1.707 1.707z m80.663 81.09a21.766 21.766 0 0 1-21.34-21.34 59.323 59.323 0 0 0-13.23-37.557 21.34 21.34 0 1 1 32.863-26.887 101.148 101.148 0 0 1 23.9 64.444 21.34 21.34 0 0 1-22.193 21.34z"
          p-id="2919"></path>
    <path d="M713.383 559.586a213.392 213.392 0 0 1 64.017 10.67V172.067a85.357 85.357 0 0 0-85.356-81.942H265.26a85.357 85.357 0 0 0-85.357 81.942v615.848a85.357 85.357 0 0 0 85.357 81.943h259.91a213.392 213.392 0 0 1 188.212-310.272zM340.8 252.303H564.01l-51.214-52.068a21.34 21.34 0 1 1 30.301-30.302l88.771 90.905a21.34 21.34 0 0 1 5.975 14.938 22.193 22.193 0 0 1-5.975 15.364l-88.77 86.637a21.34 21.34 0 0 1-15.365 5.975 20.059 20.059 0 0 1-14.937-5.975 21.34 21.34 0 0 1 0-31.582l51.214-51.214H340.8a21.34 21.34 0 0 1-21.339-21.34 21.34 21.34 0 0 1 21.34-21.338z m-75.54 227.475h426.783a20.912 20.912 0 1 1 0 42.678H265.26a20.912 20.912 0 1 1 0-42.678z m192.052 150.654H265.261a20.486 20.486 0 0 1-21.34-20.485 20.912 20.912 0 0 1 21.34-20.486h192.052a20.912 20.912 0 0 1 21.34 20.486 20.486 20.486 0 0 1-21.34 20.485z"
          p-id="2920"></path>
</svg>