<?xml version="1.0" standalone="no"?><!DOCTYPE svg PUBLIC "-//W3C//DTD SVG 1.1//EN"
        "http://www.w3.org/Graphics/SVG/1.1/DTD/svg11.dtd">
<svg t="1690030113417" class="icon" viewBox="0 0 1024 1024" version="1.1" xmlns="http://www.w3.org/2000/svg" p-id="1961"
     width="200" height="200" fill="#fccc5c">
    <path d="M661.333333 785.066667l-25.6-8.533334-91.733333-29.866666c-34.133333-10.666667-55.466667-42.666667-57.6-76.8-2.133333-36.266667 19.2-68.266667 51.2-83.2L768 486.4V405.333333H42.666667v426.666667c0 23.466667 19.2 42.666667 42.666666 42.666667h578.133334c-2.133333-6.4-2.133333-14.933333-2.133334-21.333334v-68.266666zM768 192c0-23.466667-19.2-42.666667-42.666667-42.666667H85.333333c-23.466667 0-42.666667 19.2-42.666666 42.666667v149.333333h725.333333V192z m-544 85.333333h-85.333333c-17.066667 0-32-14.933333-32-32S121.6 213.333333 138.666667 213.333333h85.333333c17.066667 0 32 14.933333 32 32s-14.933333 32-32 32z m448 0h-320c-17.066667 0-32-14.933333-32-32s14.933333-32 32-32h320c17.066667 0 32 14.933333 32 32s-14.933333 32-32 32z"
          p-id="1962"></path>
    <path d="M951.466667 471.466667l-386.133334 174.933333c-17.066667 8.533333-17.066667 34.133333 2.133334 40.533333l89.6 29.866667 170.666666-113.066667-102.4 128 123.733334 49.066667c21.333333 8.533333 46.933333-4.266667 53.333333-27.733333l76.8-256c6.4-17.066667-10.666667-34.133333-27.733333-25.6zM725.333333 853.333333c0 21.333333 27.733333 29.866667 38.4 10.666667l36.266667-59.733333-74.666667-27.733334V853.333333z"
          p-id="1963"></path>
</svg>