<?xml version="1.0" standalone="no"?><!DOCTYPE svg PUBLIC "-//W3C//DTD SVG 1.1//EN"
        "http://www.w3.org/Graphics/SVG/1.1/DTD/svg11.dtd">
<svg t="1686014941355" class="icon" viewBox="0 0 1024 1024" version="1.1" xmlns="http://www.w3.org/2000/svg" p-id="1469"
     width="200" height="200">
    <path d="M960.512 539.712l-144.768 144.832-48.256-48.256 60.224-60.288H512V512h325.76l-70.272-70.272 48.256-48.256 144.768 144.768-0.704 0.768 0.704 0.704zM704 192a64 64 0 0 0-64-64H192a64 64 0 0 0-64 64v640a64 64 0 0 0 64 64h448a64 64 0 0 0 64-64v-64h64v64a128 128 0 0 1-128 128H192a128 128 0 0 1-128-128V192a128 128 0 0 1 128-128h448a128 128 0 0 1 128 128v128h-64V192z"
          fill="#ffffff" p-id="1470"></path>
</svg>
